<svg width="201" height="50" viewBox="0 0 201 50" fill="none" xmlns="http://www.w3.org/2000/svg">
<path d="M78.9592 17.9938H85.3067V38.2599H78.9592V17.9938Z" fill="#E60023" style=":hover {fill: #fff}"/>
<path d="M86.632 17.9938H92.7457V20.7645H92.8623C94.3423 18.5874 96.2503 17.4001 99.0152 17.4001C103.376 17.4001 105.946 20.5666 105.946 25.0791V38.2599H99.5992V26.3853C99.5992 24.2477 98.5478 22.7831 96.4839 22.7831C94.3812 22.7831 92.9792 24.5645 92.9792 27.0581V38.2599H86.632V17.9938Z" fill="#E60023"/>
<path d="M85.9403 12.5717C85.9403 10.4342 84.2355 8.70154 82.1328 8.70154C80.0301 8.70154 78.3254 10.4342 78.3254 12.5717C78.3254 14.7091 80.0301 16.4418 82.1328 16.4418C84.2355 16.4418 85.9403 14.7091 85.9403 12.5717Z" fill="#E60023"/>
<path d="M150.588 17.7011C150.407 17.6845 150.199 17.6771 149.956 17.6771C147.542 17.6771 145.907 18.7458 144.505 21.1604H144.388V17.9937H138.313V38.2597H144.66V29.1559C144.66 24.9377 146.959 22.983 150.588 23.3241V17.7011Z" fill="#E60023"/>
<path d="M181.737 25.4746C179.205 24.9999 176.947 24.8019 176.947 23.377C176.947 22.1102 178.154 21.5166 179.711 21.5166C181.464 21.5166 182.671 22.0708 182.905 23.8916H188.746C188.435 19.8938 185.397 17.4 179.751 17.4C175.039 17.4 171.145 19.6166 171.145 23.8916C171.145 28.6412 174.844 29.5912 178.31 30.1852C180.958 30.6602 183.372 30.858 183.372 32.6788C183.372 33.985 182.165 34.6975 180.257 34.6975C178.343 34.6975 177.076 33.8743 176.688 32.2039H170.641C171.085 36.37 174.683 38.8932 180.296 38.8932C185.514 38.8932 189.369 36.5975 189.369 32.1644C189.369 26.9789 185.242 26.0686 181.737 25.4746Z" fill="#E60023"/>
<path d="M160.435 21.9916C162.498 21.9916 163.977 23.5352 164.211 25.95H156.346C156.774 23.5352 158.02 21.9916 160.435 21.9916ZM160.785 34.2224C158.175 34.2224 156.696 32.5205 156.307 29.7892H170.637C170.675 25.6729 169.507 22.1499 167.133 19.9334C165.418 18.3502 163.16 17.4 160.317 17.4C154.243 17.4 150.076 22.031 150.076 28.0874C150.076 34.2224 154.126 38.8537 160.707 38.8537C163.239 38.8537 165.263 38.1809 166.938 36.9933C168.69 35.7663 169.858 34.0246 170.287 32.204H164.095C163.55 33.4705 162.459 34.2224 160.785 34.2224Z" fill="#E60023"/>
<path d="M200.549 33.481C200.255 33.4928 199.859 33.5102 199.496 33.5102C198.133 33.5102 197.277 33.1142 197.277 31.531V22.0311H200.549V17.9937H197.277V11.5814H191.085V17.9937H189.138V22.0311H191.085V32.9163C191.085 37.2706 193.733 38.4974 197.432 38.4974C198.843 38.4974 199.91 38.3899 200.549 38.2635V33.481Z" fill="#E60023"/>
<path d="M117.282 33.4902C117.029 33.5001 116.736 33.5102 116.463 33.5102C115.1 33.5102 114.243 33.1142 114.243 31.531V22.0311H117.282V17.9938H114.243V11.5814H108.052V17.9938H105.987V22.0311H108.052V32.9163C108.052 37.2706 110.7 38.4974 114.399 38.4974C115.651 38.4974 116.631 38.4128 117.282 38.3054V33.4902Z" fill="#E60023"/>
<path d="M131.107 25.9498C130.874 23.5353 129.394 21.9914 127.33 21.9914C124.916 21.9914 123.67 23.5353 123.241 25.9498H131.107ZM116.972 28.0872C116.972 22.0311 121.138 17.4001 127.213 17.4001C130.056 17.4001 132.314 18.35 134.028 19.9334C136.403 22.15 137.571 25.6727 137.532 29.7893H123.202C123.592 32.5204 125.071 34.2225 127.681 34.2225C129.355 34.2225 130.445 33.4704 130.99 32.2038H137.182C136.753 34.0246 135.585 35.7661 133.833 36.9934C132.159 38.1807 130.134 38.8537 127.602 38.8537C121.022 38.8537 116.972 34.2225 116.972 28.0872Z" fill="#E60023"/>
<path d="M67.9361 23.2583C70.4285 23.2583 71.8303 21.7542 71.8303 19.4978C71.8303 17.2417 70.3893 15.8564 67.9361 15.8564H63.0683V23.2583H67.9361ZM56.6423 9.95862H67.6647C71.0524 9.95862 73.5447 10.9085 75.258 12.571C77.0493 14.2729 78.0619 16.6876 78.0619 19.5374C78.0619 24.9603 74.3625 28.7999 68.6382 28.7999H63.0683V38.2599H56.6423V9.95862Z" fill="#E60023"/>
<path d="M47.9289 24.9601C47.9289 38.4135 37.1995 49.3195 23.9645 49.3195C10.7294 49.3195 6.10352e-05 38.4135 6.10352e-05 24.9601C6.10352e-05 11.5067 10.7294 0.600708 23.9645 0.600708C37.1995 0.600708 47.9289 11.5067 47.9289 24.9601Z" fill="white"/>
<path d="M23.9645 0.600586C10.7293 0.600586 0 11.5067 0 24.96C0 35.2798 6.31661 44.102 15.2312 47.6512C15.0218 45.7239 14.8324 42.7599 15.3143 40.6559C15.7497 38.7548 18.1243 28.5477 18.1243 28.5477C18.1243 28.5477 17.4075 27.0885 17.4075 24.9311C17.4075 21.5439 19.3389 19.0151 21.7439 19.0151C23.7884 19.0151 24.7758 20.5754 24.7758 22.4465C24.7758 24.5365 23.4668 27.6613 22.7913 30.557C22.2266 32.9816 23.9874 34.9588 26.34 34.9588C30.5992 34.9588 33.8733 30.3937 33.8733 23.8041C33.8733 17.9715 29.7504 13.8937 23.8633 13.8937C17.0445 13.8937 13.0422 19.0925 13.0422 24.465C13.0422 26.5586 13.8356 28.8036 14.8257 30.0241C15.0216 30.2653 15.0502 30.4766 14.9919 30.7228C14.81 31.4921 14.4057 33.1468 14.3264 33.4854C14.2219 33.9313 13.9791 34.0258 13.5249 33.811C10.5319 32.3949 8.66056 27.9468 8.66056 24.3741C8.66056 16.6901 14.1531 9.63313 24.4949 9.63313C32.808 9.63313 39.2684 15.6547 39.2684 23.702C39.2684 32.0972 34.061 38.8536 26.833 38.8536C24.4046 38.8536 22.1218 37.5712 21.3403 36.0565C21.3403 36.0565 20.1387 40.7075 19.8473 41.8472C19.3064 43.9631 17.8458 46.6151 16.869 48.2332C19.1111 48.9388 21.494 49.3195 23.9645 49.3195C37.1997 49.3195 47.929 38.4132 47.929 24.96C47.929 11.5067 37.1997 0.600586 23.9645 0.600586Z" fill="#E60023"/>
</svg>
