<svg width="168" height="40" viewBox="0 0 168 40" fill="none" xmlns="http://www.w3.org/2000/svg">
<path fill-rule="evenodd" clip-rule="evenodd" d="M130.044 17.6214C129.54 20.8485 127.015 20.8485 124.574 20.8485H123.184L124.159 14.8234C124.218 14.4594 124.539 14.1911 124.918 14.1911H125.554C127.216 14.1911 128.786 14.1911 129.596 15.1155C130.08 15.6687 130.227 16.4885 130.044 17.6214ZM128.981 9.20239H119.772C119.142 9.20239 118.606 9.64966 118.508 10.2569L114.784 33.3087C114.711 33.7632 115.07 34.1745 115.542 34.1745H120.267C120.708 34.1745 121.084 33.8614 121.152 33.4363L122.208 26.9014C122.306 26.2941 122.842 25.8469 123.472 25.8469H126.386C132.452 25.8469 135.953 22.981 136.868 17.3014C137.28 14.8173 136.884 12.8655 135.693 11.499C134.383 9.99673 132.062 9.20239 128.981 9.20239Z" fill="#2790C3"/>
<path fill-rule="evenodd" clip-rule="evenodd" d="M64.3601 17.6214C63.8568 20.8485 61.332 20.8485 58.8905 20.8485H57.501L58.4753 14.8234C58.5346 14.4594 58.8561 14.1911 59.2336 14.1911H59.8706C61.5328 14.1911 63.1031 14.1911 63.9123 15.1155C64.3969 15.6687 64.5434 16.4885 64.3601 17.6214ZM63.2976 9.20239H54.088C53.4585 9.20239 52.9225 9.64966 52.8244 10.2569L49.1002 33.3087C49.0269 33.7632 49.387 34.1745 49.8585 34.1745H54.2557C54.8852 34.1745 55.4216 33.7273 55.5197 33.1204L56.5246 26.9014C56.6224 26.2941 57.1587 25.8469 57.7883 25.8469H60.7025C66.7681 25.8469 70.2691 22.981 71.1842 17.3014C71.596 14.8173 71.2013 12.8655 70.0096 11.499C68.699 9.99673 66.3782 9.20239 63.2976 9.20239Z" fill="#27346A"/>
<path fill-rule="evenodd" clip-rule="evenodd" d="M84.6774 25.8968C84.2513 28.3566 82.251 30.008 79.6996 30.008C78.4211 30.008 77.3968 29.6064 76.7391 28.846C76.0869 28.092 75.841 27.0181 76.048 25.8221C76.4448 23.3846 78.4771 21.6799 80.9896 21.6799C82.2421 21.6799 83.2583 22.0856 83.9296 22.8528C84.6057 23.6258 84.8707 24.707 84.6774 25.8968ZM90.8231 17.5183H86.4134C86.0351 17.5183 85.7141 17.7862 85.6547 18.151L85.4608 19.3546L85.1528 18.9183C84.198 17.5652 82.0693 17.113 79.9441 17.113C75.0721 17.113 70.9103 20.717 70.1004 25.772C69.679 28.2936 70.2772 30.7033 71.7421 32.3854C73.0875 33.9308 75.0079 34.574 77.2957 34.574C81.2232 34.574 83.401 32.1114 83.401 32.1114L83.2037 33.3078C83.1306 33.7627 83.4905 34.1744 83.9624 34.1744H87.9336C88.5633 34.1744 89.0994 33.7276 89.197 33.1203L91.5811 18.3841C91.6549 17.9292 91.295 17.5183 90.8231 17.5183Z" fill="#27346A"/>
<path fill-rule="evenodd" clip-rule="evenodd" d="M150.361 25.8968C149.935 28.3566 147.935 30.008 145.384 30.008C144.104 30.008 143.081 29.6064 142.422 28.846C141.77 28.092 141.525 27.0181 141.732 25.8221C142.129 23.3846 144.161 21.6799 146.674 21.6799C147.925 21.6799 148.942 22.0856 149.614 22.8528C150.289 23.6258 150.554 24.707 150.361 25.8968ZM156.506 17.5183H152.097C151.719 17.5183 151.397 17.7862 151.339 18.151L151.145 19.3546L150.837 18.9183C149.881 17.5652 147.753 17.113 145.627 17.113C140.756 17.113 136.594 20.717 135.784 25.772C135.363 28.2936 135.961 30.7033 137.425 32.3854C138.771 33.9308 140.692 34.574 142.98 34.574C146.906 34.574 149.084 32.1114 149.084 32.1114L148.888 33.3078C148.814 33.7627 149.174 34.1744 149.646 34.1744H153.617C154.247 34.1744 154.783 33.7276 154.881 33.1203L157.264 18.3841C157.338 17.9292 156.978 17.5183 156.506 17.5183Z" fill="#2790C3"/>
<mask id="mask0_868_229" style="mask-type:alpha" maskUnits="userSpaceOnUse" x="0" y="0" width="168" height="40">
<path d="M0.0245361 40H167.484V0.331665H0.0245361V40Z" fill="white"/>
</mask>
<g mask="url(#mask0_868_229)">
<path fill-rule="evenodd" clip-rule="evenodd" d="M114.309 17.5183H109.877C109.453 17.5183 109.057 17.7236 108.818 18.0658L102.705 26.8565L100.113 18.4092C99.9512 17.8807 99.4526 17.5183 98.8879 17.5183H94.5308C94.0042 17.5183 93.6341 18.0234 93.8035 18.5094L98.6843 32.494L94.0937 38.8173C93.7331 39.3134 94.0971 39.9999 94.72 39.9999H99.148C99.568 39.9999 99.9607 39.7991 100.2 39.4621L114.941 18.6948C115.293 18.1979 114.929 17.5183 114.309 17.5183Z" fill="#27346A"/>
<path fill-rule="evenodd" clip-rule="evenodd" d="M161.704 9.83553L157.924 33.3087C157.851 33.7636 158.211 34.1745 158.683 34.1745H162.484C163.114 34.1745 163.65 33.7273 163.748 33.1204L167.475 10.0687C167.548 9.61373 167.188 9.20239 166.716 9.20239H162.462C162.085 9.20239 161.763 9.47106 161.704 9.83553Z" fill="#2790C3"/>
<path fill-rule="evenodd" clip-rule="evenodd" d="M26.4462 38.3656L27.6841 30.7026L27.764 30.2779C27.8236 29.9087 28.0173 29.5709 28.3091 29.3277C28.6009 29.0844 28.973 28.9503 29.3567 28.9503H30.3397C31.9783 28.9503 33.4836 28.7793 34.8143 28.4424C36.2339 28.0832 37.4967 27.5236 38.5671 26.7806C39.702 25.9927 40.6551 24.9741 41.4006 23.7539C42.187 22.4666 42.7644 20.9167 43.117 19.1479C43.4286 17.5858 43.487 16.1875 43.2912 14.9911C43.0839 13.7273 42.5852 12.6489 41.8091 11.785C41.3385 11.2618 40.7363 10.8085 40.0194 10.4375L40.0025 10.4287L40.0021 10.4085C40.2524 8.84927 40.2429 7.54867 39.9735 6.42905C39.7028 5.30703 39.1548 4.29734 38.2968 3.34299C36.5191 1.36562 33.2857 0.362793 28.687 0.362793H16.0569C15.6348 0.362793 15.225 0.510268 14.9039 0.778147C14.5827 1.04603 14.3699 1.41815 14.3037 1.82542L9.04476 34.3802C8.99675 34.6771 9.08408 34.9789 9.28441 35.2068C9.48473 35.4359 9.77612 35.5673 10.084 35.5673H17.9195L17.9125 35.6036L17.3744 38.9345C17.333 39.1935 17.4091 39.4561 17.5834 39.6549C17.7576 39.8541 18.0114 39.9689 18.2796 39.9689H24.8514C25.2202 39.9689 25.5774 39.8399 25.8576 39.606C26.1378 39.3721 26.3241 39.0477 26.3816 38.6925L26.4462 38.3656Z" fill="#27346A"/>
<path fill-rule="evenodd" clip-rule="evenodd" d="M21.944 10.4508C22.0272 9.93489 22.3662 9.51269 22.8227 9.29896C23.0305 9.20196 23.2622 9.14783 23.5052 9.14783H33.4051C34.5781 9.14783 35.6716 9.22296 36.6717 9.38016C36.9573 9.42503 37.2349 9.47669 37.5052 9.53529C37.7755 9.59389 38.0375 9.65896 38.2912 9.73169C38.4182 9.76763 38.5429 9.80563 38.6658 9.84563C39.1567 10.0048 39.6136 10.1923 40.0341 10.4096C40.53 7.32396 40.0308 5.22419 38.321 3.32237C36.4386 1.22863 33.0381 0.331665 28.6872 0.331665H16.0572C15.1681 0.331665 14.4111 0.963179 14.2725 1.82055L9.01351 34.3753C8.90962 35.0177 9.4183 35.5984 10.0843 35.5984H17.8812L21.944 10.4508Z" fill="#27346A"/>
<path fill-rule="evenodd" clip-rule="evenodd" d="M40.0342 10.4097C39.9965 10.6452 39.9547 10.8848 39.905 11.1317C38.2399 19.4796 32.5414 22.3656 25.2635 22.3656H21.5574C20.6684 22.3656 19.9176 22.9975 19.779 23.8549L17.3432 38.9301C17.2526 39.4917 17.6975 40 18.2798 40H24.8521C25.6298 40 26.292 39.4477 26.4133 38.6973L26.4779 38.3713L27.7158 30.7075L27.7957 30.284C27.917 29.5337 28.5792 28.9814 29.3569 28.9814H30.3399C36.7069 28.9814 41.6923 26.4561 43.1491 19.1535C43.7576 16.1022 43.443 13.5551 41.8333 11.7644C41.3466 11.223 40.7407 10.7749 40.0342 10.4097Z" fill="#2790C3"/>
<path fill-rule="evenodd" clip-rule="evenodd" d="M38.291 9.73151C38.0373 9.65877 37.7752 9.59377 37.505 9.53517C37.2347 9.47657 36.957 9.42484 36.6714 9.38004C35.6714 9.22284 34.5779 9.14771 33.4049 9.14771H23.505C23.262 9.14771 23.0302 9.20184 22.8225 9.29877C22.366 9.51257 22.027 9.93477 21.9438 10.4507L19.8395 23.4746L19.7787 23.8548C19.9173 22.9974 20.6681 22.3654 21.5572 22.3654H25.2632C32.5412 22.3654 38.2396 19.4794 39.9047 11.1315C39.9544 10.8846 39.9962 10.645 40.0339 10.4095C39.6133 10.1921 39.1564 10.0046 38.6656 9.84544C38.5426 9.80544 38.418 9.76751 38.291 9.73151Z" fill="#1F264F"/>
</g>
</svg>
