<svg width="128" height="44" viewBox="0 0 128 44" fill="none" xmlns="http://www.w3.org/2000/svg">
<g clip-path="url(#clip0_868_230)">
<path d="M115.489 17.8881C117.028 17.8881 118.275 16.6451 118.275 15.1119C118.275 13.5786 117.028 12.3357 115.489 12.3357C113.95 12.3357 112.703 13.5786 112.703 15.1119C112.703 16.6451 113.95 17.8881 115.489 17.8881Z" fill="#FF4500"/>
<path d="M75.696 26.95C77.0628 26.95 77.8513 25.9285 77.7987 24.9333C77.7724 24.4095 77.7199 24.069 77.6673 23.8071C76.8262 20.1928 73.8825 17.5214 70.3868 17.5214C66.234 17.5214 62.8698 21.2666 62.8698 25.8761C62.8698 30.4857 66.234 34.2309 70.3868 34.2309C72.9888 34.2309 74.855 33.2881 76.1954 31.7952C76.8525 31.0619 76.7211 29.9357 75.9326 29.3857C75.2755 28.9404 74.4607 29.0976 73.8562 29.5952C73.278 30.0928 72.1741 31.0881 70.3868 31.0881C68.2841 31.0881 66.4969 29.2809 66.1026 26.8976H75.696V26.95ZM70.3605 20.6904C72.2529 20.6904 73.8825 22.1571 74.487 24.1737H66.234C66.8385 22.1309 68.4681 20.6904 70.3605 20.6904Z" fill="#222222"/>
<path d="M62.6254 19.4772C62.6254 18.6915 62.0471 18.0629 61.3112 17.9319C59.0245 17.5915 56.8693 18.4296 55.634 19.9748V19.7653C55.634 18.7962 54.8455 18.1939 54.057 18.1939C53.1896 18.1939 52.48 18.901 52.48 19.7653V32.5987C52.48 33.4368 53.1108 34.1701 53.9519 34.2225C54.8718 34.2749 55.634 33.5677 55.634 32.651V26.0248C55.634 23.0915 57.8418 20.6819 60.8907 21.0224C60.9958 21.0224 61.1009 21.0224 61.2061 21.0224C61.9946 20.97 62.6254 20.2891 62.6254 19.4772Z" fill="#222222"/>
<path d="M117.066 20.8476C117.066 19.9833 116.356 19.2761 115.489 19.2761C114.622 19.2761 113.912 19.9833 113.912 20.8476C113.912 20.8999 113.912 31.8476 113.912 32.3452C113.912 33.2095 114.622 33.9166 115.489 33.9166C116.356 33.9166 117.066 33.2095 117.066 32.3452C117.066 31.8738 117.066 20.9261 117.066 20.8476Z" fill="#222222"/>
<path d="M93.6214 12.1524C93.6214 11.2881 92.9117 10.5809 92.0444 10.5809C91.177 10.5809 90.4674 11.2881 90.4674 12.1524V19.1452C89.3897 18.0714 88.0493 17.5476 86.446 17.5476C82.2932 17.5476 78.929 21.2928 78.929 25.9024C78.929 30.5119 82.2932 34.2571 86.446 34.2571C88.0493 34.2571 89.416 33.7071 90.4936 32.6333C90.6251 33.3667 91.2821 33.9167 92.0444 33.9167C92.9117 33.9167 93.6214 33.2095 93.6214 32.3452V12.1524ZM86.4723 31.1405C84.0542 31.1405 82.1092 28.8095 82.1092 25.9024C82.1092 23.0214 84.0542 20.6643 86.4723 20.6643C88.8904 20.6643 90.8353 22.9952 90.8353 25.9024C90.8353 28.8095 88.8641 31.1405 86.4723 31.1405Z" fill="#222222"/>
<path d="M110.075 12.1524C110.075 11.2881 109.365 10.5809 108.498 10.5809C107.63 10.5809 106.921 11.2881 106.921 12.1524V19.1452C105.843 18.0714 104.503 17.5476 102.899 17.5476C98.7466 17.5476 95.3823 21.2928 95.3823 25.9024C95.3823 30.5119 98.7466 34.2571 102.899 34.2571C104.503 34.2571 105.869 33.7071 106.947 32.6333C107.078 33.3667 107.736 33.9167 108.498 33.9167C109.365 33.9167 110.075 33.2095 110.075 32.3452V12.1524ZM102.899 31.1405C100.481 31.1405 98.5363 28.8095 98.5363 25.9024C98.5363 23.0214 100.481 20.6643 102.899 20.6643C105.317 20.6643 107.262 22.9952 107.262 25.9024C107.262 28.8095 105.317 31.1405 102.899 31.1405Z" fill="#222222"/>
<path d="M125.056 32.3714V20.6904H126.449C127.185 20.6904 127.842 20.1404 127.895 19.3809C127.947 18.569 127.29 17.8881 126.502 17.8881H125.056V15.6881C125.056 14.85 124.425 14.1166 123.584 14.0643C122.664 14.0119 121.902 14.719 121.902 15.6357V17.9143H120.588C119.852 17.9143 119.195 18.4643 119.142 19.2238C119.09 20.0357 119.747 20.7166 120.535 20.7166H121.876V32.3976C121.876 33.2619 122.586 33.969 123.453 33.969C124.373 33.9167 125.056 33.2357 125.056 32.3714Z" fill="#222222"/>
<path d="M22.0255 43.8952C34.1897 43.8952 44.0509 34.0688 44.0509 21.9476C44.0509 9.82627 34.1897 0 22.0255 0C9.86113 0 0 9.82627 0 21.9476C0 34.0688 9.86113 43.8952 22.0255 43.8952Z" fill="#FF4500"/>
<path d="M36.7178 21.9476C36.7178 20.1666 35.2722 18.7523 33.5113 18.7523C32.6439 18.7523 31.8554 19.0928 31.2772 19.6428C29.0694 18.0714 26.0468 17.05 22.6825 16.919L24.1544 10.0571L28.938 11.0785C28.9905 12.2833 29.9893 13.2523 31.2246 13.2523C32.4862 13.2523 33.5113 12.2309 33.5113 10.9738C33.5113 9.71662 32.4862 8.69519 31.2246 8.69519C30.331 8.69519 29.5425 9.219 29.1745 9.97852L23.839 8.85233C23.6813 8.82614 23.5236 8.85233 23.4185 8.9309C23.2871 9.00948 23.2082 9.14043 23.1819 9.29757L21.5524 16.9452C18.1355 17.05 15.0604 18.0714 12.8263 19.669C12.248 19.119 11.4595 18.7785 10.5922 18.7785C8.80492 18.7785 7.38562 20.219 7.38562 21.9737C7.38562 23.2833 8.17412 24.3833 9.27802 24.8809C9.22546 25.1952 9.19917 25.5095 9.19917 25.85C9.19917 30.7738 14.9552 34.7809 22.0517 34.7809C29.1482 34.7809 34.9043 30.8 34.9043 25.85C34.9043 25.5357 34.878 25.1952 34.8254 24.8809C35.9293 24.3833 36.7178 23.2571 36.7178 21.9476ZM14.6924 24.2261C14.6924 22.969 15.7174 21.9476 16.979 21.9476C18.2407 21.9476 19.2657 22.969 19.2657 24.2261C19.2657 25.4833 18.2407 26.5047 16.979 26.5047C15.7174 26.5309 14.6924 25.4833 14.6924 24.2261ZM27.4924 30.2761C25.9154 31.8476 22.9191 31.9523 22.0517 31.9523C21.1581 31.9523 18.1618 31.8214 16.6111 30.2761C16.3745 30.0404 16.3745 29.6738 16.6111 29.438C16.8476 29.2023 17.2156 29.2023 17.4521 29.438C18.4509 30.4333 20.5536 30.7738 22.0517 30.7738C23.5499 30.7738 25.6788 30.4333 26.6513 29.438C26.8879 29.2023 27.2558 29.2023 27.4924 29.438C27.7026 29.6738 27.7026 30.0404 27.4924 30.2761ZM27.0718 26.5309C25.8103 26.5309 24.7852 25.5095 24.7852 24.2523C24.7852 22.9952 25.8103 21.9737 27.0718 21.9737C28.3334 21.9737 29.3585 22.9952 29.3585 24.2523C29.3585 25.4833 28.3334 26.5309 27.0718 26.5309Z" fill="white"/>
</g>
<defs>
<clipPath id="clip0_868_230">
<rect width="128" height="44" fill="white"/>
</clipPath>
</defs>
</svg>
