<svg width="174" height="35" viewBox="0 0 174 35" fill="none" xmlns="http://www.w3.org/2000/svg">
<path d="M69.501 14.9803H58.8111C58.5354 14.9803 58.3117 15.2079 58.3117 15.4887V20.8059C58.3117 21.0864 58.5354 21.3148 58.8111 21.3148H62.9813V27.9211C62.9813 27.9211 62.0447 28.2457 59.4563 28.2457C56.4021 28.2457 52.1358 27.1104 52.1358 17.5656C52.1358 8.01867 56.5782 6.76257 60.7491 6.76257C64.3594 6.76257 65.9148 7.40934 66.9045 7.72087C67.2153 7.81789 67.5031 7.50285 67.5031 7.22204L68.6955 2.0845C68.6955 1.95326 68.6519 1.79507 68.5046 1.68754C68.1026 1.39596 65.6507 0 59.4563 0C52.32 0 45 3.08889 45 17.9378C45 32.7872 53.3807 35 60.4432 35C66.2906 35 69.8381 32.4575 69.8381 32.4575C69.9843 32.3754 70 32.1676 70 32.0723V15.4887C70 15.2079 69.7767 14.9803 69.501 14.9803Z" fill="#161312"/>
<path d="M126 2.51018C126 2.22779 125.774 2 125.491 2H119.32C119.038 2 118.808 2.22779 118.808 2.51018C118.808 2.51153 118.81 14.3201 118.81 14.3201H109.19V2.51018C109.19 2.22779 108.963 2 108.681 2H102.51C102.229 2 102 2.22779 102 2.51018V34.4881C102 34.7702 102.229 35 102.51 35H108.681C108.963 35 109.19 34.7702 109.19 34.4881V20.8101H118.81C118.81 20.8101 118.793 34.4871 118.793 34.4881C118.793 34.7702 119.022 35 119.305 35H125.491C125.773 35 125.999 34.7702 126 34.4881V2.51018Z" fill="#161312"/>
<path d="M81 5.99876C81 3.7872 79.2091 2 76.9997 2C74.7925 2 73 3.7872 73 5.99876C73 8.20801 74.7925 10 76.9997 10C79.2091 10 81 8.20801 81 5.99876Z" fill="#161312"/>
<path d="M81 27.594C81 26.7573 81 12.5202 81 12.5202C81 12.2339 80.7777 12 80.5034 12H74.5201C74.2456 12 74 12.2943 74 12.5805C74 12.5805 74 30.7192 74 34.1767C74 34.8115 74.3804 35 74.8728 35C74.8728 35 77.4266 35 80.2635 35C80.8548 35 81 34.6983 81 34.1666C81 33.009 81 28.4742 81 27.594Z" fill="#161312"/>
<path d="M148.51 12H142.661C142.392 12 142.174 12.2279 142.174 12.5083V28.096C142.174 28.096 140.688 29.2166 138.579 29.2166C136.47 29.2166 135.91 28.2304 135.91 26.1019C135.91 23.9707 135.91 12.5083 135.91 12.5083C135.91 12.2279 135.692 12 135.424 12H129.487C129.22 12 129 12.2279 129 12.5083C129 12.5083 129 20.8094 129 27.1312C129 33.4534 132.419 35 137.122 35C140.98 35 144.091 32.8031 144.091 32.8031C144.091 32.8031 144.239 33.9607 144.306 34.098C144.373 34.2349 144.547 34.3733 144.736 34.3733L148.513 34.3562C148.781 34.3562 149 34.1278 149 33.8486L148.998 12.5083C148.998 12.2279 148.78 12 148.51 12Z" fill="#161312"/>
<path d="M163.301 29.2989C161.244 29.2359 159.849 28.2994 159.849 28.2994V18.362C159.849 18.362 161.225 17.5154 162.914 17.3641C165.05 17.1721 167.108 17.8194 167.108 22.9314C167.108 28.3222 166.179 29.3858 163.301 29.2989ZM165.64 11.6185C162.272 11.6185 159.981 13.1265 159.981 13.1265V2.50064C159.981 2.22353 159.76 2 159.487 2H153.494C153.221 2 153 2.22353 153 2.50064V33.8806C153 34.1574 153.221 34.3829 153.495 34.3829C153.495 34.3829 157.652 34.3829 157.653 34.3829C157.84 34.3829 157.982 34.286 158.087 34.1164C158.19 33.9477 158.339 32.6695 158.339 32.6695C158.339 32.6695 160.79 35 165.43 35C170.876 35 174 32.2277 174 22.5551C174 12.8825 169.011 11.6185 165.64 11.6185Z" fill="#161312"/>
<path d="M98.4048 12.2861H93.7901C93.7901 12.2861 93.7831 6.33893 93.7831 6.3376C93.7831 6.11253 93.6642 6 93.3976 6H87.1088C86.8643 6 86.733 6.10488 86.733 6.33418V12.4812C86.733 12.4812 83.5816 13.2235 83.3684 13.2835C83.1562 13.3435 83 13.5344 83 13.7622V17.625C83 17.9028 83.2274 18.1268 83.5086 18.1268H86.733C86.733 18.1268 86.733 22.167 86.733 27.4196C86.733 34.3218 91.6952 35 95.0437 35C96.5735 35 98.4037 34.5205 98.7059 34.4117C98.8887 34.3461 98.9948 34.1617 98.9948 33.9613L99 29.7121C99 29.435 98.76 29.2106 98.4899 29.2106C98.2211 29.2106 97.533 29.3173 96.8247 29.3173C94.5581 29.3173 93.7901 28.289 93.7901 26.958C93.7901 25.6279 93.7898 18.1268 93.7898 18.1268H98.4048C98.6862 18.1268 98.9138 17.9028 98.9138 17.625V12.7866C98.9138 12.5093 98.6862 12.2861 98.4048 12.2861Z" fill="#161312"/>
<path fill-rule="evenodd" clip-rule="evenodd" d="M17.5 0C7.83125 0 0 8.02933 0 17.9426C0 25.8823 5.00937 32.5883 11.9656 34.9657C12.8406 35.1227 13.1687 34.5844 13.1687 34.1134C13.1687 33.6873 13.1469 32.2743 13.1469 30.7716C8.75 31.6015 7.6125 29.6726 7.2625 28.6634C7.06562 28.1475 6.2125 26.5551 5.46875 26.129C4.85625 25.7925 3.98125 24.9627 5.44688 24.9403C6.825 24.9178 7.80938 26.2411 8.1375 26.7794C9.7125 29.4932 12.2281 28.7307 13.2344 28.2597C13.3875 27.0934 13.8469 26.3084 14.35 25.8598C10.4562 25.4113 6.3875 23.8637 6.3875 17.0007C6.3875 15.0494 7.06563 13.4346 8.18125 12.1786C8.00625 11.73 7.39375 9.89088 8.35625 7.42377C8.35625 7.42377 9.82188 6.95277 13.1687 9.26289C14.5687 8.85918 16.0563 8.65732 17.5438 8.65732C19.0313 8.65732 20.5188 8.85918 21.9188 9.26289C25.2656 6.93035 26.7313 7.42377 26.7313 7.42377C27.6938 9.89088 27.0813 11.73 26.9063 12.1786C28.0219 13.4346 28.7 15.027 28.7 17.0007C28.7 23.8861 24.6094 25.4113 20.7156 25.8598C21.35 26.4205 21.8969 27.4971 21.8969 29.1792C21.8969 31.5791 21.875 33.5079 21.875 34.1134C21.875 34.5844 22.2031 35.1452 23.0781 34.9657C29.9906 32.5883 35 25.8598 35 17.9426C35 8.02933 27.1688 0 17.5 0Z" fill="#1B1F23"/>
</svg>
