<svg width="235" height="48" viewBox="0 0 235 48" fill="none" xmlns="http://www.w3.org/2000/svg">
<path d="M88.0231 12.9231L82.8605 32.7138L77.698 12.9231H72.4983L73.7011 17.1692L69.1676 33.3785L64.2086 12.9231H59.2125L66.244 38.7692H71.7212L75.9401 24.9415L79.8814 38.7692H85.3401L92.7416 12.9231H88.0231ZM140.556 20.4185C139.426 20.1578 138.273 20.0154 137.114 19.9938C130.823 19.9938 127.381 24.1846 127.381 30.3323C127.381 36.4431 130.823 39.2308 134.875 39.2308C137.029 39.1606 139.105 38.4037 140.796 37.0708V38.7692H145.108V12.9231H140.556V20.4185ZM140.556 33.4892C139.075 34.8369 137.688 35.5754 136.226 35.5754C133.709 35.5754 132.099 33.9138 132.099 30.0185C132.099 25.8092 134.098 23.6123 137.577 23.6123C138.594 23.6123 139.612 23.8154 140.537 24.1846V33.4892H140.556ZM118.795 23.4462H118.629V20.4185H114.373V38.7692H118.943V27.84C120.368 25.1446 122.107 24.2585 125.012 24.2585H125.475V20.3077C125.063 20.2623 124.65 20.2377 124.235 20.2338C121.756 20.2338 120.053 21.1938 118.795 23.4646V23.4462ZM101.438 19.9569C95.1471 19.9569 92.1865 24.0185 92.1865 29.6123C92.1865 35.1877 95.1471 39.2123 101.438 39.2123C107.73 39.2123 110.727 35.1877 110.727 29.6123C110.727 24.0185 107.693 19.9569 101.42 19.9569H101.438ZM101.438 35.5385C98.4778 35.5385 96.8865 33.6185 96.8865 29.6123C96.8865 25.5877 98.4779 23.6677 101.457 23.6677C104.418 23.6677 105.972 25.5877 105.972 29.6123C105.972 33.6185 104.399 35.5385 101.42 35.5385H101.438ZM176.028 23.4277H175.88V20.4185H171.605V38.7692H176.157V27.84C177.582 25.1446 179.321 24.2585 182.227 24.2585H182.689V20.3077C182.277 20.2623 181.864 20.2377 181.449 20.2338C178.988 20.2338 177.286 21.1938 176.009 23.4646H176.028V23.4277ZM159.226 12.9231H150.751V38.7692H155.636V29.7785H159.208C164.74 29.7785 168.756 26.8062 168.756 21.2492C168.756 15.7108 164.74 12.9231 159.208 12.9231H159.226ZM159.263 25.9938H155.636V16.7446H159.245C162.205 16.7446 163.649 18.3692 163.649 21.2492C163.649 24.1477 162.298 25.9938 159.245 25.9938H159.263ZM225.914 25.5692C225.914 24.1846 227.432 23.6492 229.06 23.6492C230.781 23.6677 232.502 23.9446 234.149 24.4431V20.6769C232.374 20.1766 230.535 19.9403 228.69 19.9754C224.286 19.9754 221.196 22.0615 221.196 25.4585C221.196 32.0492 230.3 30.3508 230.3 33.5631C230.3 35.1323 228.875 35.5569 226.784 35.5569C225.304 35.5569 222.954 35.0031 221.251 34.3938V38.1415C222.959 38.8228 224.778 39.1918 226.617 39.2308C230.91 39.2308 235 37.9569 235 33.3785C235.055 27.0092 225.933 28.6523 225.933 25.5692H225.914ZM193.532 19.9754C187.648 19.9754 184.595 24.5354 184.595 29.5015C184.595 36.3323 188.185 39.2308 194.032 39.2308C196.325 39.2356 198.604 38.8806 200.786 38.1785V34.3938C198.88 35.0954 197.141 35.52 195.29 35.52C191.886 35.52 189.61 34.5969 189.499 30.5908H201.267C201.378 29.6862 201.434 28.7815 201.415 27.8954C201.415 24.0185 199.361 19.9754 193.514 19.9754H193.532ZM189.536 27.5815C189.813 25.0338 191.201 23.4092 193.477 23.4092C195.919 23.4092 196.66 25.3477 196.66 27.5815H189.536ZM209.335 25.5692C209.335 24.1846 210.834 23.6492 212.462 23.6492C214.183 23.6677 215.904 23.9446 217.551 24.4431V20.6769C215.782 20.1785 213.948 19.9422 212.11 19.9754C207.706 19.9754 204.598 22.0615 204.598 25.4585C204.598 32.0492 213.72 30.3508 213.72 33.5631C213.72 35.1323 212.277 35.5569 210.204 35.5569C208.724 35.5569 206.374 35.0031 204.653 34.3938V38.1415C206.361 38.8231 208.18 39.1922 210.019 39.2308C214.312 39.2308 218.42 37.9569 218.42 33.3785C218.457 27.0092 209.335 28.6523 209.335 25.5692ZM3.18267 24C3.18267 32.2523 7.99369 39.36 14.9512 42.7385L4.99606 15.5262C3.80067 18.192 3.18273 21.0796 3.18267 24ZM24.0551 44.8246C26.4791 44.8246 28.8106 44.4 30.9941 43.6431L30.846 43.3662L24.4252 25.8277L18.1708 43.9754C20.0212 44.5292 22.0012 44.8246 24.0551 44.8246ZM26.9232 14.2338L34.4728 36.6277L36.5637 29.6862C37.4519 26.8062 38.1366 24.7385 38.1366 22.9477C38.1366 20.3631 37.2114 18.5908 36.4342 17.2246C35.361 15.4892 34.3803 14.0308 34.3803 12.3323C34.3803 10.4123 35.8236 8.64 37.896 8.64H38.1551C34.309 5.11737 29.276 3.16671 24.0551 3.17538C20.5982 3.17474 17.1954 4.0315 14.1527 5.66856C11.1101 7.30564 8.52307 9.67169 6.6244 12.5538L7.95668 12.5908C10.1401 12.5908 13.5079 12.3138 13.5079 12.3138C14.6551 12.2585 14.7846 13.9015 13.6559 14.0308C13.6559 14.0308 12.5272 14.1785 11.2504 14.2338L18.874 36.7938L23.4445 23.1323L20.1878 14.2338C19.4583 14.1937 18.7302 14.1321 18.0043 14.0492C16.8756 13.9754 17.0051 12.2585 18.1338 12.3138C18.1338 12.3138 21.5756 12.5908 23.6295 12.5908C25.813 12.5908 29.1807 12.3138 29.1807 12.3138C30.3094 12.2585 30.4574 13.9015 29.3287 14.0308C29.3287 14.0308 28.2 14.16 26.9232 14.2338ZM34.5468 42C37.7043 40.1682 40.3248 37.5417 42.1466 34.3831C43.9681 31.2246 44.9271 27.6441 44.9275 24C44.9275 20.3815 44.0023 16.9846 42.374 14.0123C42.7046 17.2824 42.2084 20.583 40.9307 23.6123L34.5468 42ZM24.0551 48C17.6753 48 11.5568 45.4715 7.04557 40.9706C2.53437 36.4697 0 30.3652 0 24C0 17.6348 2.53437 11.5303 7.04557 7.02943C11.5568 2.52857 17.6753 0 24.0551 0C30.4349 0 36.5534 2.52857 41.0646 7.02943C45.5759 11.5303 48.1102 17.6348 48.1102 24C48.1102 30.3652 45.5759 36.4697 41.0646 40.9706C36.5534 45.4715 30.4349 48 24.0551 48Z" fill="#163B54"/>
</svg>
